<svg width="483" height="118" viewBox="0 0 483 118" fill="none" xmlns="http://www.w3.org/2000/svg">
<path d="M147.039 31.0923H152.064L164.914 50.6653H164.996V31.0923H170.392V59.9367H165.367L152.517 40.4049H152.434V59.9367H147.039V31.0923ZM175.139 55.4864V51.3658H180.658V53.797L182.017 55.1568H190.542L191.942 53.7558V48.9758L190.583 47.616H179.669L175.221 43.1657V35.5426L179.669 31.0923H192.684L197.132 35.5426V39.7044H191.613V37.232L190.254 35.8722H182.099L180.74 37.232V41.4763L182.099 42.8361H193.013L197.461 47.2864V55.404L192.931 59.9367H179.587L175.139 55.4864ZM201.98 54.992V31.0923H207.582V53.0553L209.682 55.1568H217.755L219.855 53.0553V31.0923H225.456V54.992L220.514 59.9367H206.923L201.98 54.992ZM242.041 31.0923H247.643V43.1657H259.834V31.0923H265.435V59.9367H259.834V47.9457H247.643V59.9367H242.041V31.0923ZM278.871 31.0923H283.978L294.522 59.9367H288.838L286.49 53.5497H276.359L274.011 59.9367H268.327L278.871 31.0923ZM285.255 48.9346L281.424 37.9737H281.342L277.635 48.9346H285.255ZM305.498 31.0923H310.605L321.148 59.9367H315.465L313.117 53.5497H302.985L300.638 59.9367H294.954L305.498 31.0923ZM311.882 48.9346L308.051 37.9737H307.969L304.262 48.9346H311.882ZM326.899 35.831H318.292V31.0923H341.109V35.831H332.501V59.9367H326.899V35.831ZM344.402 31.0923H362.482L366.601 35.2129V43.2894L364.953 44.9788L367.878 47.9457V55.4864L363.43 59.9367H344.402V31.0923ZM359.599 43.1657L361.082 41.6823V37.232L359.641 35.7898H349.879V43.1657H359.599ZM360.588 55.2392L362.359 53.4673V49.4291L360.588 47.6572H349.879V55.2392H360.588ZM380.067 31.0923H385.174L395.718 59.9367H390.034L387.686 53.5497H377.555L375.207 59.9367H369.523L380.067 31.0923ZM386.451 48.9346L382.62 37.9737H382.538L378.831 48.9346H386.451ZM397.384 55.4864L412.17 35.8722V35.7898H397.796V31.0923H418.883V35.5426L404.097 55.1568V55.2392H418.883V59.9367H397.384V55.4864ZM431.066 31.0923H436.174L446.717 59.9367H441.033L438.686 53.5497H428.554L426.207 59.9367H420.523L431.066 31.0923ZM437.45 48.9346L433.62 37.9737H433.538L429.831 48.9346H437.45ZM472.271 50.3769V59.9367H466.67V51.6543L464.199 48.8934H455.22V59.9367H449.619V31.0923H467.7L472.106 35.5426V44.2783L469.306 47.1216L472.271 50.3769ZM455.22 44.2783H465.146L466.588 42.8361V37.232L465.146 35.7898H455.22V44.2783Z" fill="black"/>
<path d="M157.176 78.7198H152.47V91.7779H150.549V78.7198H145.854V77.1304H157.176V78.7198ZM160.916 82.2107C161.741 81.198 162.813 80.6917 164.134 80.6917C166.433 80.6917 167.593 81.9893 167.613 84.585V91.7779H165.753V84.5749C165.746 83.7903 165.565 83.21 165.21 82.8345C164.861 82.4589 164.315 82.2711 163.571 82.2711C162.967 82.2711 162.438 82.4321 161.982 82.7539C161.526 83.0759 161.171 83.4984 160.916 84.0216V91.7779H159.056V76.3255H160.916V82.2107ZM174.913 91.9791C173.438 91.9791 172.238 91.4962 171.313 90.5305C170.388 89.558 169.926 88.2602 169.926 86.6372V86.2952C169.926 85.2154 170.13 84.2529 170.539 83.4078C170.955 82.5561 171.531 81.8921 172.268 81.416C173.013 80.9332 173.817 80.6917 174.682 80.6917C176.096 80.6917 177.196 81.1577 177.98 82.0899C178.764 83.0223 179.156 84.3568 179.156 86.0939V86.8686H171.786C171.813 87.9416 172.124 88.8101 172.721 89.4741C173.324 90.1314 174.088 90.4601 175.013 90.4601C175.671 90.4601 176.227 90.326 176.683 90.0576C177.138 89.7893 177.537 89.4338 177.879 88.9913L179.015 89.8766C178.104 91.2782 176.736 91.9791 174.913 91.9791ZM174.682 82.2209C173.931 82.2209 173.301 82.4958 172.791 83.0457C172.282 83.5889 171.967 84.3535 171.846 85.3394H177.296V85.1986C177.242 84.2529 176.988 83.5219 176.532 83.0055C176.076 82.4823 175.459 82.2209 174.682 82.2209ZM188.448 91.7779H186.587V76.3255H188.448V91.7779ZM195.948 91.9791C194.474 91.9791 193.274 91.4962 192.349 90.5305C191.423 89.558 190.96 88.2602 190.96 86.6372V86.2952C190.96 85.2154 191.166 84.2529 191.574 83.4078C191.99 82.5561 192.567 81.8921 193.304 81.416C194.047 80.9332 194.852 80.6917 195.717 80.6917C197.131 80.6917 198.231 81.1577 199.016 82.0899C199.8 83.0223 200.192 84.3568 200.192 86.0939V86.8686H192.821C192.847 87.9416 193.16 88.8101 193.757 89.4741C194.36 90.1314 195.124 90.4601 196.049 90.4601C196.706 90.4601 197.262 90.326 197.719 90.0576C198.173 89.7893 198.572 89.4338 198.915 88.9913L200.051 89.8766C199.139 91.2782 197.771 91.9791 195.948 91.9791ZM195.717 82.2209C194.967 82.2209 194.336 82.4958 193.826 83.0457C193.317 83.5889 193.003 84.3535 192.881 85.3394H198.331V85.1986C198.278 84.2529 198.024 83.5219 197.567 83.0055C197.112 82.4823 196.494 82.2209 195.717 82.2209ZM201.912 86.2448C201.912 84.5481 202.303 83.1999 203.088 82.2006C203.872 81.1946 204.911 80.6917 206.205 80.6917C207.532 80.6917 208.567 81.1611 209.312 82.1L209.402 80.8929H211.102V91.5165C211.102 92.9248 210.683 94.0347 209.844 94.8463C209.013 95.6579 207.893 96.0636 206.486 96.0636C205.701 96.0636 204.934 95.8959 204.183 95.5605C203.432 95.2252 202.859 94.7658 202.464 94.1823L203.43 93.0656C204.228 94.0516 205.203 94.5446 206.356 94.5446C207.261 94.5446 207.965 94.2896 208.466 93.7798C208.977 93.2702 209.232 92.5526 209.232 91.627V90.6914C208.487 91.55 207.472 91.9791 206.184 91.9791C204.911 91.9791 203.878 91.4661 203.088 90.4398C202.303 89.4138 201.912 88.0154 201.912 86.2448ZM203.782 86.4561C203.782 87.6835 204.033 88.6492 204.535 89.3535C205.038 90.051 205.742 90.3998 206.647 90.3998C207.82 90.3998 208.682 89.8665 209.232 88.8002V83.8303C208.661 82.7908 207.807 82.2711 206.667 82.2711C205.763 82.2711 205.055 82.6232 204.546 83.3274C204.037 84.0317 203.782 85.0746 203.782 86.4561ZM220.633 91.7779C220.526 91.5633 220.44 91.181 220.373 90.6311C219.508 91.5298 218.474 91.9791 217.276 91.9791C216.204 91.9791 215.322 91.6773 214.631 91.0737C213.948 90.4634 213.605 89.6921 213.605 88.7599C213.605 87.6264 214.034 86.7479 214.893 86.124C215.758 85.4938 216.971 85.1785 218.532 85.1785H220.343V84.3233C220.343 83.6728 220.148 83.1564 219.759 82.7741C219.371 82.3851 218.796 82.1905 218.04 82.1905C217.376 82.1905 216.82 82.3583 216.37 82.6936C215.921 83.0289 215.696 83.4348 215.696 83.9109H213.826C213.826 83.3677 214.017 82.8446 214.399 82.3415C214.788 81.8318 215.311 81.4293 215.968 81.1343C216.632 80.8391 217.359 80.6917 218.151 80.6917C219.403 80.6917 220.386 81.0068 221.097 81.6372C221.807 82.2609 222.176 83.1229 222.202 84.2227V89.2327C222.202 90.2319 222.329 91.0268 222.584 91.617V91.7779H220.633ZM217.548 90.3595C218.13 90.3595 218.682 90.2085 219.206 89.9068C219.729 89.6049 220.107 89.2126 220.343 88.7298V86.4964H218.884C216.604 86.4964 215.466 87.1638 215.466 88.4983C215.466 89.0817 215.661 89.5378 216.048 89.8665C216.438 90.195 216.937 90.3595 217.548 90.3595ZM229.482 90.4601C230.147 90.4601 230.725 90.2589 231.222 89.8564C231.718 89.4541 231.993 88.951 232.047 88.3475H233.807C233.773 88.9712 233.558 89.5648 233.163 90.128C232.768 90.6914 232.238 91.1407 231.573 91.4762C230.916 91.8115 230.22 91.9791 229.482 91.9791C228.002 91.9791 226.822 91.4861 225.942 90.5003C225.072 89.5076 224.635 88.1529 224.635 86.4359V86.124C224.635 85.0645 224.83 84.1222 225.22 83.2973C225.607 82.4722 226.165 81.8318 226.888 81.3758C227.62 80.9197 228.481 80.6917 229.473 80.6917C230.692 80.6917 231.705 81.0572 232.51 81.7882C233.32 82.5192 233.753 83.4683 233.807 84.6352H232.047C231.993 83.9309 231.725 83.3542 231.242 82.9049C230.767 82.4488 230.177 82.2209 229.473 82.2209C228.528 82.2209 227.794 82.5629 227.27 83.2469C226.755 83.9244 226.496 84.9068 226.496 86.1945V86.5466C226.496 87.8008 226.755 88.7667 227.27 89.444C227.786 90.1214 228.524 90.4601 229.482 90.4601ZM239.457 89.0516L241.992 80.8929H243.982L239.608 93.458C238.931 95.2689 237.854 96.1743 236.381 96.1743L236.029 96.1441L235.335 96.0132V94.5043L235.838 94.5446C236.467 94.5446 236.958 94.417 237.306 94.1621C237.662 93.9074 237.952 93.4412 238.18 92.7639L238.592 91.6571L234.711 80.8929H236.742L239.457 89.0516ZM250.266 86.2347C250.266 85.1684 250.474 84.2092 250.89 83.3576C251.313 82.5057 251.895 81.8485 252.64 81.3859C253.391 80.923 254.245 80.6917 255.203 80.6917C256.686 80.6917 257.882 81.2047 258.794 82.2308C259.711 83.257 260.172 84.6219 260.172 86.3254V86.4561C260.172 87.5157 259.966 88.4681 259.558 89.3132C259.155 90.1516 258.575 90.8055 257.818 91.2748C257.068 91.7444 256.203 91.9791 255.224 91.9791C253.748 91.9791 252.552 91.4661 251.635 90.4398C250.723 89.4138 250.266 88.0557 250.266 86.3657V86.2347ZM252.137 86.4561C252.137 87.6633 252.415 88.6324 252.972 89.3634C253.535 90.0945 254.286 90.4601 255.224 90.4601C256.169 90.4601 256.92 90.0911 257.476 89.3535C258.032 88.609 258.311 87.5694 258.311 86.2347C258.311 85.0411 258.026 84.0751 257.455 83.3375C256.894 82.593 256.143 82.2209 255.203 82.2209C254.286 82.2209 253.544 82.5863 252.981 83.3173C252.419 84.0484 252.137 85.0946 252.137 86.4561ZM263.418 91.7779V82.3314H261.699V80.8929H263.418V79.7762C263.418 78.6091 263.73 77.7071 264.354 77.0701C264.977 76.4329 265.859 76.1143 266.999 76.1143C267.428 76.1143 267.853 76.1712 268.276 76.2853L268.175 77.7944C267.86 77.734 267.525 77.7037 267.169 77.7037C266.567 77.7037 266.1 77.8815 265.771 78.2369C265.443 78.5857 265.279 79.0888 265.279 79.746V80.8929H267.602V82.3314H265.279V91.7779H263.418ZM286.313 91.7779H284.374L277.004 80.4904V91.7779H275.062V77.1304H277.004L284.395 88.4681V77.1304H286.313V91.7779ZM294.056 85.249C292.402 84.7727 291.194 84.1892 290.438 83.4984C289.687 82.8009 289.311 81.9425 289.311 80.923C289.311 79.7695 289.769 78.817 290.689 78.0659C291.613 77.3081 292.813 76.9292 294.289 76.9292C295.294 76.9292 296.189 77.1236 296.973 77.5127C297.763 77.9017 298.373 78.4381 298.802 79.1223C299.238 79.8063 299.456 80.5541 299.456 81.3656H297.516C297.516 80.4804 297.233 79.7863 296.672 79.2832C296.108 78.7736 295.314 78.5186 294.289 78.5186C293.336 78.5186 292.592 78.7299 292.055 79.1525C291.525 79.5683 291.261 80.1484 291.261 80.8929C291.261 81.4898 291.512 81.9961 292.016 82.4119C292.525 82.821 293.386 83.1967 294.599 83.5387C295.82 83.8807 296.771 84.2596 297.456 84.6754C298.145 85.0845 298.656 85.5642 298.984 86.1141C299.319 86.664 299.487 87.3112 299.487 88.0557C299.487 89.2428 299.025 90.195 298.098 90.9128C297.173 91.6236 295.938 91.9791 294.388 91.9791C293.383 91.9791 292.445 91.788 291.574 91.4058C290.702 91.0167 290.028 90.4869 289.552 89.8161C289.082 89.1456 288.848 88.3844 288.848 87.5325H290.79C290.79 88.4179 291.114 89.1186 291.765 89.6352C292.422 90.1448 293.296 90.3998 294.388 90.3998C295.408 90.3998 296.189 90.1919 296.732 89.776C297.275 89.36 297.546 88.7935 297.546 88.0757C297.546 87.3582 297.295 86.8049 296.792 86.4159C296.29 86.0201 295.378 85.6312 294.056 85.249ZM312.278 77.1304V87.09C312.27 88.4715 311.834 89.6017 310.969 90.4801C310.112 91.3587 308.945 91.8517 307.47 91.959L306.957 91.9791C305.356 91.9791 304.078 91.5466 303.127 90.6815C302.174 89.8161 301.693 88.6258 301.68 87.11V77.1304H303.589V87.0497C303.589 88.1093 303.881 88.9343 304.463 89.5245C305.048 90.1079 305.879 90.3998 306.957 90.3998C308.05 90.3998 308.885 90.1079 309.462 89.5245C310.044 88.9411 310.336 88.1194 310.336 87.0598V77.1304H312.278ZM328.707 85.0075H322.362V90.1984H329.733V91.7779H320.432V77.1304H329.632V78.7198H322.362V83.428H328.707V85.0075ZM333.604 80.8929L333.664 82.2609C334.496 81.2149 335.581 80.6917 336.922 80.6917C339.221 80.6917 340.381 81.9893 340.402 84.585V91.7779H338.541V84.5749C338.534 83.7903 338.354 83.21 337.998 82.8345C337.65 82.4589 337.103 82.2711 336.358 82.2711C335.755 82.2711 335.226 82.4321 334.771 82.7539C334.314 83.0759 333.96 83.4984 333.704 84.0216V91.7779H331.845V80.8929H333.604ZM345.73 78.257V80.8929H347.761V82.3314H345.73V89.0817C345.73 89.5178 345.822 89.8465 346.001 90.0677C346.183 90.2823 346.492 90.3896 346.926 90.3896C347.142 90.3896 347.437 90.3494 347.812 90.2688V91.7779C347.323 91.912 346.846 91.9791 346.383 91.9791C345.552 91.9791 344.927 91.7275 344.504 91.2246C344.081 90.7215 343.871 90.0074 343.871 89.0817V82.3314H341.89V80.8929H343.871V78.257H345.73ZM355.203 82.5629C354.92 82.5159 354.617 82.4924 354.287 82.4924C353.067 82.4924 352.239 83.0122 351.803 84.0517V91.7779H349.944V80.8929H351.754L351.784 82.1504C352.395 81.178 353.258 80.6917 354.377 80.6917C354.74 80.6917 355.016 80.7386 355.203 80.8324V82.5629ZM361.235 91.9791C359.761 91.9791 358.561 91.4962 357.636 90.5305C356.712 89.558 356.247 88.2602 356.247 86.6372V86.2952C356.247 85.2154 356.453 84.2529 356.861 83.4078C357.277 82.5561 357.854 81.8921 358.591 81.416C359.334 80.9332 360.139 80.6917 361.004 80.6917C362.418 80.6917 363.519 81.1577 364.303 82.0899C365.087 83.0223 365.479 84.3568 365.479 86.0939V86.8686H358.108C358.134 87.9416 358.447 88.8101 359.044 89.4741C359.647 90.1314 360.411 90.4601 361.336 90.4601C361.993 90.4601 362.549 90.326 363.006 90.0576C363.461 89.7893 363.859 89.4338 364.202 88.9913L365.338 89.8766C364.427 91.2782 363.058 91.9791 361.235 91.9791ZM361.004 82.2209C360.254 82.2209 359.623 82.4958 359.114 83.0457C358.604 83.5889 358.29 84.3535 358.168 85.3394H363.618V85.1986C363.565 84.2529 363.311 83.5219 362.854 83.0055C362.399 82.4823 361.781 82.2209 361.004 82.2209ZM376.831 86.4561C376.831 88.1126 376.453 89.4473 375.695 90.4601C374.938 91.4728 373.912 91.9791 372.619 91.9791C371.297 91.9791 370.258 91.5599 369.502 90.7215V95.963H367.641V80.8929H369.341L369.431 82.1C370.189 81.1611 371.241 80.6917 372.587 80.6917C373.896 80.6917 374.927 81.1845 375.685 82.1705C376.449 83.1564 376.831 84.5279 376.831 86.2851V86.4561ZM374.97 86.2448C374.97 85.0175 374.71 84.0484 374.186 83.3375C373.663 82.6265 372.946 82.2711 372.035 82.2711C370.908 82.2711 370.063 82.7708 369.502 83.77V88.9712C370.058 89.9637 370.908 90.4601 372.055 90.4601C372.946 90.4601 373.654 90.1079 374.176 89.4037C374.706 88.6929 374.97 87.6399 374.97 86.2448ZM384.464 82.5629C384.181 82.5159 383.876 82.4924 383.548 82.4924C382.328 82.4924 381.5 83.0122 381.064 84.0517V91.7779H379.205V80.8929H381.013L381.045 82.1504C381.654 81.178 382.518 80.6917 383.638 80.6917C384.001 80.6917 384.274 80.7386 384.464 80.8324V82.5629ZM390.495 91.9791C389.022 91.9791 387.822 91.4962 386.897 90.5305C385.971 89.558 385.508 88.2602 385.508 86.6372V86.2952C385.508 85.2154 385.714 84.2529 386.122 83.4078C386.538 82.5561 387.114 81.8921 387.852 81.416C388.595 80.9332 389.4 80.6917 390.265 80.6917C391.679 80.6917 392.779 81.1577 393.564 82.0899C394.348 83.0223 394.739 84.3568 394.739 86.0939V86.8686H387.369C387.395 87.9416 387.708 88.8101 388.303 89.4741C388.908 90.1314 389.672 90.4601 390.597 90.4601C391.254 90.4601 391.81 90.326 392.266 90.0576C392.721 89.7893 393.12 89.4338 393.463 88.9913L394.599 89.8766C393.687 91.2782 392.319 91.9791 390.495 91.9791ZM390.265 82.2209C389.514 82.2209 388.884 82.4958 388.374 83.0457C387.865 83.5889 387.551 84.3535 387.429 85.3394H392.879V85.1986C392.826 84.2529 392.572 83.5219 392.115 83.0055C391.66 82.4823 391.042 82.2209 390.265 82.2209ZM398.662 80.8929L398.721 82.2609C399.553 81.2149 400.638 80.6917 401.979 80.6917C404.278 80.6917 405.438 81.9893 405.459 84.585V91.7779H403.598V84.5749C403.591 83.7903 403.411 83.21 403.055 82.8345C402.707 82.4589 402.16 82.2711 401.415 82.2711C400.813 82.2711 400.283 82.4321 399.828 82.7539C399.371 83.0759 399.015 83.4984 398.761 84.0216V91.7779H396.902V80.8929H398.662ZM412.779 91.9791C411.304 91.9791 410.104 91.4962 409.179 90.5305C408.254 89.558 407.792 88.2602 407.792 86.6372V86.2952C407.792 85.2154 407.996 84.2529 408.404 83.4078C408.82 82.5561 409.396 81.8921 410.134 81.416C410.879 80.9332 411.682 80.6917 412.547 80.6917C413.962 80.6917 415.061 81.1577 415.845 82.0899C416.63 83.0223 417.021 84.3568 417.021 86.0939V86.8686H409.651C409.679 87.9416 409.99 88.8101 410.587 89.4741C411.19 90.1314 411.953 90.4601 412.878 90.4601C413.535 90.4601 414.093 90.326 414.548 90.0576C415.005 89.7893 415.404 89.4338 415.744 88.9913L416.881 89.8766C415.969 91.2782 414.602 91.9791 412.779 91.9791ZM412.547 82.2209C411.796 82.2209 411.167 82.4958 410.656 83.0457C410.147 83.5889 409.832 84.3535 409.712 85.3394H415.162V85.1986C415.108 84.2529 414.853 83.5219 414.396 83.0055C413.942 82.4823 413.326 82.2209 412.547 82.2209ZM425.9 90.7015C425.176 91.5532 424.114 91.9791 422.712 91.9791C421.553 91.9791 420.668 91.6438 420.058 90.9731C419.455 90.2958 419.15 89.2964 419.144 87.9751V80.8929H421.003V87.9249C421.003 89.5747 421.673 90.3998 423.014 90.3998C424.436 90.3998 425.38 89.8699 425.85 88.8101V80.8929H427.711V91.7779H425.94L425.9 90.7015ZM435.806 82.5629C435.523 82.5159 435.218 82.4924 434.89 82.4924C433.67 82.4924 432.842 83.0122 432.406 84.0517V91.7779H430.545V80.8929H432.355L432.385 82.1504C432.996 81.178 433.861 80.6917 434.98 80.6917C435.341 80.6917 435.617 80.7386 435.806 80.8324V82.5629ZM443.859 88.8907C443.859 88.3876 443.668 87.9987 443.287 87.7236C442.91 87.4421 442.249 87.2006 441.306 86.9993C440.366 86.7981 439.619 86.5567 439.063 86.275C438.513 85.9933 438.105 85.658 437.835 85.269C437.575 84.88 437.444 84.4172 437.444 83.8807C437.444 82.9888 437.82 82.2342 438.571 81.6172C439.327 81.0002 440.293 80.6917 441.465 80.6917C442.699 80.6917 443.698 81.0101 444.462 81.6473C445.234 82.2845 445.619 83.0993 445.619 84.092H443.749C443.749 83.5822 443.53 83.1429 443.096 82.7741C442.665 82.4052 442.122 82.2209 441.465 82.2209C440.789 82.2209 440.259 82.3683 439.878 82.6635C439.496 82.9585 439.305 83.3441 439.305 83.8204C439.305 84.2697 439.483 84.6084 439.836 84.8363C440.192 85.0645 440.832 85.2825 441.757 85.4904C442.689 85.6983 443.444 85.9465 444.02 86.2347C444.597 86.5232 445.022 86.8719 445.297 87.281C445.578 87.6835 445.718 88.1763 445.718 88.7599C445.718 89.7324 445.331 90.5136 444.552 91.1038C443.775 91.6875 442.766 91.9791 441.527 91.9791C440.654 91.9791 439.883 91.8249 439.213 91.5165C438.543 91.2078 438.017 90.7787 437.635 90.2288C437.26 89.6721 437.071 89.0718 437.071 88.4278H438.932C438.966 89.0516 439.213 89.5479 439.675 89.9167C440.145 90.279 440.761 90.4601 441.527 90.4601C442.231 90.4601 442.792 90.3192 443.215 90.0375C443.644 89.7491 443.859 89.3668 443.859 88.8907ZM450.004 82.2107C450.827 81.198 451.9 80.6917 453.22 80.6917C455.519 80.6917 456.68 81.9893 456.7 84.585V91.7779H454.839V84.5749C454.832 83.7903 454.652 83.21 454.296 82.8345C453.948 82.4589 453.402 82.2711 452.656 82.2711C452.054 82.2711 451.524 82.4321 451.069 82.7539C450.612 83.0759 450.258 83.4984 450.004 84.0216V91.7779H448.143V76.3255H450.004V82.2107ZM461.506 91.7779H459.645V80.8929H461.506V91.7779ZM459.495 78.0056C459.495 77.7037 459.585 77.449 459.767 77.2411C459.954 77.0332 460.229 76.9292 460.59 76.9292C460.954 76.9292 461.227 77.0332 461.416 77.2411C461.603 77.449 461.697 77.7037 461.697 78.0056C461.697 78.3074 461.603 78.5589 461.416 78.7601C461.227 78.9612 460.954 79.0618 460.59 79.0618C460.229 79.0618 459.954 78.9612 459.767 78.7601C459.585 78.5589 459.495 78.3074 459.495 78.0056ZM473.682 86.4561C473.682 88.1126 473.304 89.4473 472.547 90.4601C471.789 91.4728 470.763 91.9791 469.47 91.9791C468.15 91.9791 467.111 91.5599 466.353 90.7215V95.963H464.492V80.8929H466.192L466.282 82.1C467.04 81.1611 468.092 80.6917 469.44 80.6917C470.746 80.6917 471.78 81.1845 472.536 82.1705C473.3 83.1564 473.682 84.5279 473.682 86.2851V86.4561ZM471.823 86.2448C471.823 85.0175 471.561 84.0484 471.038 83.3375C470.516 82.6265 469.797 82.2711 468.886 82.2711C467.76 82.2711 466.916 82.7708 466.353 83.77V88.9712C466.909 89.9637 467.76 90.4601 468.906 90.4601C469.797 90.4601 470.505 90.1079 471.027 89.4037C471.557 88.6929 471.823 87.6399 471.823 86.2448Z" fill="black"/>
<path d="M110.96 2H33.0405C23.077 2 15 10.0062 15 19.8823V97.1177C15 106.994 23.077 115 33.0405 115H110.96C120.923 115 129 106.994 129 97.1177V19.8823C129 10.0062 120.923 2 110.96 2Z" fill="#272727"/>
<path d="M77 22.5295C77 15.0574 70.9558 9 63.5 9C56.0442 9 50 15.0574 50 22.5295V60.4705C50 67.9426 56.0442 74 63.5 74C70.9558 74 77 67.9426 77 60.4705V22.5295Z" fill="#D6274D"/>
<path d="M36.5 35H36.5C31.2533 35 27 39.0312 27 44.0039V87.9961C27 92.9688 31.2533 97 36.5 97H36.5C41.7467 97 46 92.9688 46 87.9961V44.0039C46 39.0312 41.7467 35 36.5 35Z" fill="#052FD3"/>
<path d="M107 43H107C102.029 43 98 47.0577 98 52.0631V96.9369C98 101.942 102.029 106 107 106H107C111.971 106 116 101.942 116 96.9369V52.0631C116 47.0577 111.971 43 107 43Z" fill="#E83E03"/>
<path d="M87.5 57H87.5C84.4624 57 82 59.6227 82 62.858V81.142C82 84.3773 84.4624 87 87.5 87H87.5C90.5376 87 93 84.3773 93 81.142V62.858C93 59.6227 90.5376 57 87.5 57Z" fill="#FCDC3D"/>
</svg>
