<svg width="157" height="186" viewBox="0 0 157 186" fill="none" xmlns="http://www.w3.org/2000/svg">
<g clip-path="url(#clip0)">
<path d="M54.2857 147H33.6154H10.7692L9.38462 145.028L8 55.8111L9.03846 54.3323L45.9421 44.512L55.3211 42C55.3211 42 69.5645 42.7635 78.5 44.512C82.6356 45.3212 89 47 89 47V147H54.2857Z" fill="white"/>
<path d="M66.3648 48.0077C61.4786 48.2875 61.0344 50.2466 61.0344 55.8438V133.086C61.0344 133.086 60.035 139.616 68.8079 140.642C77.5809 141.668 111.896 142.881 111.896 142.881C111.896 142.881 118.336 143.814 120.002 140.456C121.668 137.097 123.889 112.563 124 97.8232C124 88.375 123.112 71.9825 122.001 65.0793C120.891 58.176 115.227 57.2431 110.23 56.217C105.344 55.1908 71.2511 47.7278 66.3648 48.0077Z" fill="#CCDEE2"/>
<path opacity="0.55" d="M175.457 198.604L91.0009 147C91.0009 147 99.3583 148.026 105.999 148C111.86 147.977 120.999 147.501 120.999 147.501L183.239 177.672L175.457 198.604Z" fill="#FCDC3D"/>
<path opacity="0.55" d="M172.324 -87L91 47.6713L121.5 55.5L200 -36.0173V-87H172.324Z" fill="#77E0B5"/>
<path opacity="0.55" d="M209 28L126 79.5C126 79.5 126.513 86.0321 126.5 90C126.488 93.7151 126 99.5 126 99.5L209 79.8519V28Z" fill="#FCC8DF"/>
</g>
<defs>
<clipPath id="clip0">
<rect width="157" height="186" fill="white"/>
</clipPath>
</defs>
</svg>
